<?xml version="1.0" encoding="UTF-8" standalone="no"?>
<svg width="274px" height="63px" viewBox="0 0 274 63" version="1.1" xmlns="http://www.w3.org/2000/svg" xmlns:xlink="http://www.w3.org/1999/xlink">
    <!-- Generator: Sketch 42 (36781) - http://www.bohemiancoding.com/sketch -->
    <title>frontinbh-logo</title>
    <desc>Created with Sketch.</desc>
    <defs></defs>
    <g id="Page-1" stroke="none" stroke-width="1" fill="none" fill-rule="evenodd">
        <g id="1-home-copy" transform="translate(-618.000000, -153.000000)" fill="#FF5C4D">
            <path d="M624.507023,167.066002 C624.816887,164.948489 625.167522,163.066124 625.554268,161.420084 C625.943345,159.771692 626.564237,158.340813 627.419273,157.125094 C628.389635,155.791802 629.573173,154.80065 630.969888,154.153992 C632.368933,153.507333 634.056873,153.145204 636.036038,153.067605 C637.085613,152.98883 638.170135,152.979424 639.297758,153.037036 C640.424216,153.095823 641.451658,153.223979 642.384743,153.419152 C643.045241,153.497927 643.413349,153.655477 643.491398,153.88945 C643.568281,154.12695 643.431988,154.674846 643.082518,155.537841 C642.656164,156.557211 642.317179,157.25325 642.064395,157.62361 C641.810447,157.998672 641.414381,158.146815 640.870373,158.066865 C640.015336,158.066865 639.182433,158.028065 638.364673,157.948115 C637.551573,157.870516 636.754781,157.870516 635.978958,157.948115 C635.200805,158.028065 634.472742,158.212657 633.794771,158.506593 C633.116799,158.801704 632.502897,159.301395 631.961218,160.006841 C631.223836,160.909811 630.727589,162.076148 630.475971,163.507028 C630.222022,164.940258 629.999527,166.341744 629.804988,167.712661 L629.690828,168.654431 L636.560243,168.654431 C637.609818,168.654431 638.193433,168.880173 638.307593,169.330483 C638.425248,169.780793 638.405445,170.458021 638.250513,171.360991 C638.170135,171.910063 638.113055,172.339209 638.075778,172.654309 C638.036171,172.969408 637.93832,173.203381 637.783388,173.36093 C637.629621,173.517304 637.404795,173.614891 637.113571,173.654866 C636.82351,173.693665 636.405311,173.713653 635.862468,173.713653 L628.991888,173.713653 L623.634513,213.008161 C623.5553,213.556058 623.467932,213.966392 623.372411,214.241516 C623.274559,214.515464 623.118463,214.721219 622.906451,214.859957 C622.692109,214.997519 622.410203,215.073942 622.060733,215.096281 C621.712428,215.113917 621.266272,215.124499 620.722263,215.124499 C620.061765,215.124499 619.548044,215.113917 619.178771,215.096281 C618.809498,215.073942 618.538076,215.0081 618.363341,214.88935 C618.188606,214.771776 618.101238,214.564845 618.101238,214.270909 C618.101238,213.976974 618.14201,213.556058 618.218893,213.008161 L623.575103,173.771264 L624.507023,167.066002 Z M657.0725,168.389653 C657.732999,168.330866 658.394662,168.293242 659.05516,168.270903 C659.715658,168.253267 660.345869,168.253267 660.949287,168.270903 C661.550376,168.293242 662.027985,168.32146 662.377455,168.361436 C662.998346,168.476658 663.357135,168.635384 663.454987,168.831733 C663.551674,169.028082 663.444503,169.555991 663.135805,170.418986 C662.784005,171.440707 662.484625,172.144977 662.230677,172.537675 C661.979059,172.930373 661.580663,173.105559 661.036655,173.066759 C660.33655,172.948009 659.530439,172.890398 658.618322,172.890398 C657.703876,172.890398 656.771956,172.939779 655.821398,173.03619 C654.86851,173.133777 653.944744,173.272514 653.052431,173.448876 C652.157787,173.625237 651.362161,173.830992 650.664386,174.064965 L647.458581,197.242388 C647.301319,198.145358 647.117265,198.712066 646.904089,198.948391 C646.689747,199.184715 646.251745,199.322277 645.593576,199.361077 L643.319691,199.361077 C642.619587,199.361077 642.192068,199.232921 642.037137,198.977784 C641.882205,198.723824 641.882205,198.145358 642.037137,197.242388 L644.309856,181.006552 L645.416511,173.066759 L642.037137,173.066759 L642.444852,170.183837 C642.87237,169.831114 643.377936,169.498379 643.961551,169.18328 C644.464788,168.948131 645.057722,168.723564 645.738024,168.507228 C646.418325,168.293242 647.204633,168.182723 648.098111,168.182723 C649.186128,168.182723 649.943313,168.476658 650.371996,169.065706 C650.798349,169.654753 651.030164,170.222637 651.070936,170.771709 L651.187426,170.652959 C652.274277,169.597142 653.652354,168.910508 655.32515,168.595408 C655.829552,168.517809 656.413167,168.449616 657.0725,168.389653 Z M668.862802,199.213051 C667.891276,198.919115 667.016436,198.55581 666.238283,198.125488 C664.062249,196.830995 662.586321,194.948631 661.811663,192.477219 C661.03118,190.006983 661.013706,186.930063 661.751088,183.241757 C662.217048,180.969046 662.918318,178.880926 663.850238,176.977398 C664.782158,175.077397 665.956377,173.459575 667.375225,172.126282 C668.794073,170.79299 670.473859,169.781851 672.418077,169.096393 C674.359965,168.409759 676.573275,168.145216 679.061501,168.30159 C681.277141,168.457964 683.131662,169.00586 684.627393,169.949982 C686.120795,170.890576 687.268221,172.135688 688.065013,173.684142 C688.86064,175.232595 689.337084,177.046767 689.49318,179.125481 C689.648112,181.204194 689.531622,183.438106 689.14371,185.830743 C688.754634,188.10463 688.0953,190.144545 687.162215,191.94931 C686.230295,193.7529 685.053747,195.262554 683.634898,196.478272 C682.217215,197.692815 680.537429,198.59461 678.594376,199.183657 C676.651323,199.771529 674.456652,199.967878 672.009197,199.771529 C670.882739,199.691578 669.833164,199.506986 668.862802,199.213051 Z M673.292917,194.891019 C674.961053,195.006242 676.409024,194.871032 677.633334,194.478333 C678.856479,194.085635 679.896734,193.4766 680.750606,192.65358 C681.605643,191.831736 682.287109,190.812367 682.790346,189.594297 C683.295912,188.38093 683.684989,187.007662 683.956411,185.47802 C684.228997,183.87078 684.343158,182.350544 684.305881,180.919665 C684.266274,179.48761 684.023975,178.22251 683.577818,177.125542 C683.131662,176.028574 682.442041,175.154996 681.508956,174.505986 C680.575871,173.859328 679.352726,173.497199 677.837191,173.4196 C676.127118,173.342001 674.641871,173.547756 673.380284,174.035689 C672.116368,174.528325 671.04699,175.243177 670.174479,176.183772 C669.29964,177.125542 668.599535,178.251904 668.07533,179.565209 C667.551125,180.879689 667.172532,182.32115 666.938387,183.890767 C666.706572,185.380434 666.609886,186.761932 666.647162,188.037613 C666.684439,189.310943 666.898781,190.459644 667.287857,191.479013 C668.220942,193.516576 670.22224,194.653519 673.292917,194.891019 Z M692.436999,173.065936 L692.845879,170.185366 C693.272232,169.830291 693.777799,169.497556 694.361414,169.183633 C694.86465,168.947308 695.458749,168.723917 696.139051,168.50758 C696.817023,168.292419 697.604495,168.184251 698.499138,168.184251 C699.58599,168.184251 700.34434,168.479363 700.770693,169.066058 C701.199376,169.65393 701.431191,170.22299 701.470798,170.770886 L701.587288,170.655663 C702.752188,169.517544 703.956694,168.852073 705.200808,168.655724 C706.483362,168.4194 708.153829,168.263026 710.213372,168.184251 C714.136755,168.144276 716.875435,168.782704 718.431741,170.094834 C719.982223,171.41049 720.587971,173.596196 720.236171,176.654304 L717.497491,196.418545 L720.819786,196.418545 L720.410906,199.007531 C720.373629,199.007531 719.837775,199.153323 718.808004,199.448434 C717.778232,199.74237 716.46772,199.830551 714.874137,199.712977 C713.942217,199.634202 713.281719,199.397877 712.894972,199.007531 C712.50473,198.614833 712.251947,198.192741 712.135457,197.742431 C712.020132,197.292122 712.020132,196.693668 712.135457,195.948247 L714.582912,178.183946 C714.700567,176.341556 714.3709,175.057645 713.593912,174.331036 C712.815759,173.606778 711.534369,173.184686 709.746247,173.065936 C708.191106,172.988337 706.725662,173.057706 705.347585,173.271691 C703.966014,173.488028 702.537846,173.75257 701.061918,174.067669 L697.856113,197.241565 C697.702347,198.145711 697.517128,198.713595 697.302786,198.947568 C697.088444,199.183892 696.652772,199.32263 695.992274,199.360254 L693.718389,199.360254 C693.020614,199.360254 692.591931,199.232098 692.436999,198.978137 C692.282067,198.723001 692.282067,198.145711 692.436999,197.241565 L694.710884,181.006905 L695.817539,173.065936 L692.436999,173.065936 Z M729.417214,189.213003 C729.377607,189.899637 729.386926,190.53689 729.446336,191.124761 C729.503416,191.711457 729.650194,192.242893 729.883174,192.71319 C730.27225,193.419812 730.6788,193.928909 731.106319,194.242832 C731.533837,194.556755 732.028919,194.753105 732.592731,194.831879 C733.156543,194.909478 733.76695,194.918884 734.429778,194.860097 C735.090276,194.80131 735.846297,194.770741 736.701333,194.770741 C737.283783,194.693142 737.634418,194.851867 737.750908,195.242214 C737.867398,195.633736 738.02233,196.32037 738.215703,197.299764 C738.370635,198.047537 738.36248,198.547227 738.187745,198.802364 C738.014175,199.055148 737.595976,199.262079 736.934313,199.418453 C735.730971,199.654777 734.506662,199.77 733.262548,199.77 C732.0196,199.77 730.845381,199.63479 729.738726,199.360841 C728.628576,199.085718 727.639576,198.644814 726.764737,198.036955 C725.889897,197.430271 725.238718,196.615481 724.812364,195.596112 C724.267191,194.380394 724.015573,192.938933 724.055179,191.271729 C724.092456,189.605701 724.288159,187.733919 724.637629,185.655205 L727.961089,161.653586 C728.037972,161.106866 728.11602,160.684774 728.192904,160.390838 C728.269787,160.095727 728.416565,159.889972 728.628576,159.771222 C728.844083,159.655999 729.135308,159.585454 729.503416,159.567818 C729.87269,159.546655 730.38641,159.537249 731.049239,159.537249 C732.13609,159.537249 732.796588,159.62543 733.030733,159.801791 C733.262548,159.978153 733.30099,160.596593 733.146058,161.653586 L732.155893,168.655136 L740.023628,168.655136 C740.566471,168.655136 740.985835,168.664542 741.27706,168.68453 C741.568285,168.703342 741.760494,168.773886 741.860675,168.889109 C741.955032,169.007859 741.995803,169.204208 741.977165,169.478156 C741.955032,169.752104 741.908436,170.16479 741.830388,170.713862 C741.713898,171.616833 741.528678,172.292885 741.27706,172.74437 C741.023112,173.193504 740.371933,173.418071 739.325853,173.418071 L731.455789,173.418071 L729.942584,185.00737 C729.824929,185.713992 729.716593,186.418262 729.621071,187.124884 C729.524385,187.831505 729.455655,188.526369 729.417214,189.213003 Z M769.467173,197.242153 C769.38796,197.791225 769.300592,198.202735 769.20507,198.477858 C769.108384,198.751807 768.961606,198.957562 768.767068,199.093948 C768.57253,199.232686 768.301108,199.312636 767.951638,199.330272 C767.602168,199.35026 767.156011,199.360841 766.610838,199.360841 C765.949175,199.360841 765.436619,199.35026 765.067346,199.330272 C764.698073,199.312636 764.426651,199.242091 764.251916,199.124517 C764.077181,199.005767 763.987484,198.800012 763.987484,198.507252 C763.987484,198.213316 764.028255,197.791225 764.105138,197.242153 L767.428598,173.066524 L764.048058,173.066524 L764.455773,170.184778 C764.882127,169.830879 765.386528,169.498144 765.970143,169.184221 C766.47338,168.947896 767.068644,168.723329 767.748945,168.506993 C768.426917,168.293007 769.213225,168.182487 770.107868,168.182487 C771.19472,168.182487 771.953069,168.477599 772.380588,169.065471 C772.808106,169.654518 773.087682,170.3776 773.081857,170.771474 C773.073703,171.166523 773.002644,171.576858 772.964203,171.772031 L769.467173,197.242153 Z M768.942968,158.126357 C769.021016,157.459711 769.117703,156.948263 769.235358,156.596716 C769.349518,156.243993 769.524253,155.977099 769.758398,155.801913 C769.992543,155.625552 770.291922,155.527965 770.663525,155.506802 C771.030469,155.486814 771.546519,155.478584 772.207018,155.478584 C772.944399,155.478584 773.537333,155.486814 773.98349,155.506802 C774.430812,155.527965 774.761643,155.617322 774.973655,155.771344 C775.187997,155.930069 775.305651,156.18403 775.32429,156.535577 C775.344093,156.8883 775.295167,157.41856 775.177512,158.126357 L775.002777,159.300925 C774.925894,159.967571 774.829207,160.477843 774.711552,160.830566 C774.595062,161.183289 774.420327,161.450183 774.188512,161.626544 C773.954368,161.80173 773.642174,161.900492 773.255428,161.92048 C772.866351,161.940468 772.360784,161.947522 771.741058,161.947522 C770.962904,161.947522 770.359486,161.940468 769.933133,161.92048 C769.50445,161.900492 769.185267,161.812312 768.970926,161.653586 C768.758914,161.498388 768.651743,161.243252 768.651743,160.889353 C768.651743,160.53663 768.690185,160.008722 768.767068,159.300925 L768.942968,158.126357 Z M775.668168,173.065936 L776.077048,170.185366 C776.503402,169.830291 777.008968,169.497556 777.592583,169.183633 C778.09582,168.947308 778.689919,168.723917 779.37022,168.50758 C780.048192,168.292419 780.835664,168.184251 781.730308,168.184251 C782.817159,168.184251 783.575509,168.479363 784.001863,169.066058 C784.430546,169.65393 784.662361,170.22299 784.701967,170.770886 L784.818457,170.655663 C785.983357,169.517544 787.187864,168.852073 788.431977,168.655724 C789.714532,168.4194 791.384998,168.263026 793.444542,168.184251 C797.367925,168.144276 800.106604,168.782704 801.662911,170.094834 C803.213393,171.41049 803.81914,173.596196 803.467341,176.654304 L800.728661,196.418545 L804.050956,196.418545 L803.642076,199.007531 C803.604799,199.007531 803.068945,199.153323 802.039173,199.448434 C801.009402,199.74237 799.698889,199.830551 798.105306,199.712977 C797.173386,199.634202 796.512888,199.397877 796.126141,199.007531 C795.7359,198.614833 795.483116,198.192741 795.366626,197.742431 C795.251301,197.292122 795.251301,196.693668 795.366626,195.948247 L797.814081,178.183946 C797.931736,176.341556 797.602069,175.057645 796.823916,174.331036 C796.046928,173.606778 794.763208,173.184686 792.977417,173.065936 C791.422275,172.988337 789.956831,173.057706 788.578754,173.271691 C787.197183,173.488028 785.769016,173.75257 784.293088,174.067669 L781.087283,197.241565 C780.933516,198.145711 780.748297,198.713595 780.533955,198.947568 C780.319614,199.183892 779.883941,199.32263 779.223443,199.360254 L776.949558,199.360254 C776.250618,199.360254 775.8231,199.232098 775.668168,198.978137 C775.513237,198.723001 775.513237,198.145711 775.668168,197.241565 L777.942053,181.006905 L779.048708,173.065936 L775.668168,173.065936 Z M832.85765,197.821794 L838.685644,155.351604 C838.762528,154.841331 838.849895,154.439227 838.948912,154.144116 C839.044434,153.85018 839.191211,153.636195 839.385749,153.497457 C839.580288,153.362246 839.851709,153.283472 840.201179,153.263484 C840.550649,153.243496 840.996806,153.232915 841.541979,153.232915 C842.202477,153.232915 842.726682,153.243496 843.115759,153.263484 C843.503671,153.283472 843.785576,153.351665 843.960311,153.468063 C844.135046,153.585638 844.222414,153.792568 844.222414,154.086504 C844.222414,154.38044 844.183972,154.801356 844.107089,155.351604 L842.007939,170.644493 C843.094791,170.095421 844.010402,169.665099 844.747784,169.351176 C846.41825,168.68453 848.283255,168.349443 850.341633,168.349443 C850.925248,168.349443 851.653311,168.409406 852.52815,168.525804 C853.40299,168.644555 854.28482,168.918503 855.179463,169.351176 C856.615784,170.095421 857.752727,171.154766 858.59029,172.525682 C859.423193,173.900126 859.98584,175.53676 860.27823,177.440288 C860.569455,179.341465 860.541497,181.44722 860.190862,183.762259 C859.879834,186.037321 859.257777,188.154835 858.325858,190.114798 C857.393938,192.074762 856.316405,193.743141 855.09326,195.114058 C853.86895,196.488501 852.635321,197.466719 851.391208,198.055767 C850.147095,198.644814 849.09752,199.036336 848.242484,199.232686 C846.806162,199.585408 845.291792,199.76177 843.698209,199.76177 C839.229653,199.799394 835.617298,199.155086 832.85765,197.821794 Z M841.367244,175.233419 L838.685644,194.586149 C839.385749,194.742523 840.144099,194.880085 840.958364,194.996483 C841.851842,195.155209 843.017907,195.232808 844.456559,195.232808 C845.388479,195.232808 846.203909,195.144627 846.904014,194.968265 C847.602953,194.791904 848.1656,194.586149 848.594283,194.349825 C849.604252,193.840728 850.545491,193.047101 851.420331,191.967769 C852.294006,190.890789 853.00343,189.644501 853.547438,188.233609 C854.090281,186.821542 854.5178,184.821603 854.828828,182.232617 C855.139856,179.643631 854.888238,177.429707 854.071643,175.586141 C853.450751,174.174074 852.148393,173.291091 850.166898,172.939544 C849.700938,172.860769 848.942588,172.850187 847.894178,172.908975 C846.844604,172.968937 845.620294,173.273455 844.222414,173.822527 C843.289329,174.174074 842.337606,174.644371 841.367244,175.233419 Z M863.296253,197.114702 L869.067167,155.351133 C869.14405,154.840861 869.231418,154.438757 869.328105,154.144821 C869.423626,153.852061 869.570404,153.635724 869.764942,153.496987 C869.95948,153.361776 870.230902,153.283001 870.580372,153.263014 C870.931007,153.243026 871.377164,153.23362 871.921172,153.23362 C872.58167,153.23362 873.105875,153.243026 873.493787,153.263014 C873.882863,153.283001 874.164769,153.351194 874.339504,153.468769 C874.515404,153.585167 874.603936,153.792098 874.603936,154.086034 C874.603936,154.37997 874.563165,154.803237 874.486282,155.351133 L872.387132,170.527625 C873.611442,169.390681 874.815948,168.724035 876.058896,168.527686 C877.342616,168.291361 879.070163,168.134987 881.246196,168.057388 C885.170744,168.018589 887.909424,168.655842 889.4634,169.966795 C891.016212,171.282452 891.620795,173.469334 891.27016,176.526266 L888.530315,196.291682 L891.853775,196.291682 L891.444895,198.880668 C891.406453,198.880668 890.871764,199.02646 889.841993,199.320396 C888.812221,199.614332 887.500544,199.703688 885.908126,199.584938 C884.976206,199.507339 884.314542,199.271015 883.927796,198.880668 C883.537554,198.48797 883.285936,198.067054 883.170611,197.614393 C883.052956,197.164083 883.052956,196.56563 883.170611,195.821385 L885.616901,178.055907 C885.733391,176.213518 885.404889,174.930782 884.626736,174.204173 C883.849747,173.47874 882.566028,173.056648 880.780236,172.937898 C879.225095,172.860299 877.729363,172.930843 876.293041,173.144829 C874.855555,173.361165 873.3971,173.624532 871.921172,173.939631 L868.715367,197.114702 C868.5616,198.017673 868.376381,198.585557 868.16204,198.820705 C867.947698,199.055854 867.512026,199.194591 866.850362,199.232215 L864.577643,199.232215 C863.878703,199.232215 863.451184,199.106411 863.296253,198.850099 C863.141321,198.596138 863.141321,198.017673 863.296253,197.114702 Z M827.93455,187.654791 L807.340284,199.33815 L808.424805,191.548852 L829.020237,179.866669 L827.93455,187.654791 Z M740.711152,188.5239 L747.577072,184.629839 L757.8445,191.546736 L756.759978,199.336033 L740.711152,188.5239 Z M740.504498,179.864906 L761.098765,168.181547 L760.014243,175.970845 L739.418812,187.653027 L740.504498,179.864906 Z M827.726965,178.995679 L820.861044,182.88974 L810.593616,175.972843 L811.679303,168.183546 L827.726965,178.995679 Z" id="frontinbh-logo"></path>
        </g>
    </g>
</svg>