<?xml version="1.0" encoding="utf-8"?>
<!-- Generator: Adobe Illustrator 20.1.0, SVG Export Plug-In . SVG Version: 6.00 Build 0)  -->
<svg version="1.1" id="Layer_1" xmlns="http://www.w3.org/2000/svg" xmlns:xlink="http://www.w3.org/1999/xlink" x="0px" y="0px"
	 viewBox="0 0 210 285" style="enable-background:new 0 0 210 285;" xml:space="preserve">
<style type="text/css">
	.st0{fill:#FFFFFF;}
</style>
<path class="st0" d="M29.9,239.2l66.9-94.3c23.8-33.5,35.5-68.1,17.7-85.1c-2.8-2-5.2-3.6-9.7-3.6c-8.5,0-14.1,4.4-16.9,12.9
	c-1.2,2-2,5.2-2.4,10.1c-0.4,4-0.8,9.7-1.2,16.5H29.5c0.4-13.3,0.8-26.2,2-31.4c1.2-9.3,4-17.7,8.9-25.8C53.2,15.5,77.4,1,103.6,1
	c27.4,0,50.8,12.5,63.7,33.1c26.2,42.3,8.9,86.7-12.5,118.9l-52.4,76.6H179V284H29.9V239.2z"/>
</svg>
