<?xml version="1.0" encoding="utf-8"?>
<!-- Generator: Adobe Illustrator 20.1.0, SVG Export Plug-In . SVG Version: 6.00 Build 0)  -->
<svg version="1.1" id="Layer_1" xmlns="http://www.w3.org/2000/svg" xmlns:xlink="http://www.w3.org/1999/xlink" x="0px" y="0px"
	 viewBox="0 0 210 285" style="enable-background:new 0 0 210 285;" xml:space="preserve">
<style type="text/css">
	.st0{fill:#FFFFFF;}
</style>
<path class="st0" d="M106,55.8c-20.2,0-27.4,18.1-30.6,37.5c-1.2,9.7-1.2,19.3-1.2,28.6v21c0,54,2.4,63.7,8.9,74.6
	c4.4,7.7,11.7,12.1,23,12.1c23.8,0,26.2-20.6,29.4-38.7h56c-2,21-3.6,30.2-6.9,39.5c-12.9,36.3-46.8,54.4-78.6,54.4
	c-31.8,0-66.5-18.1-79.4-54.4c-6.4-17.3-8.1-43.5-8.1-66.1v-21.8v-21.4c0-22.6,1.6-48.8,8.1-66.1C39.5,18.3,74.2,0.2,106,0.2
	c31.8,0,65.7,18.1,78.6,54.8c3.2,9.3,4.8,18.9,6.9,39.9h-56C133.4,77.6,129.4,55.8,106,55.8z"/>
</svg>
