<?xml version="1.0" encoding="utf-8"?>
<!-- Generator: Adobe Illustrator 20.1.0, SVG Export Plug-In . SVG Version: 6.00 Build 0)  -->
<svg version="1.1" id="Layer_1" xmlns="http://www.w3.org/2000/svg" xmlns:xlink="http://www.w3.org/1999/xlink" x="0px" y="0px"
	 viewBox="0 0 210 285" style="enable-background:new 0 0 210 285;" xml:space="preserve">
<style type="text/css">
	.st0{fill:#FFFFFF;}
</style>
<path class="st0" d="M184.4,55C171.5,18.3,136.8,0.2,105,0.2S38.5,18.3,25.6,55c-6.4,17.7-7.7,43.1-7.7,66.1v21.4v21.4
	c0,23,1.2,48.4,7.7,66.1c12.9,36.7,47.6,54.8,79.4,54.8s66.5-18.1,79.4-54.8c6.4-17.7,7.7-43.1,7.7-66.1v-21.4v-21.4
	C192.1,98.2,190.9,72.8,184.4,55z M126.8,217.1c-4.4,7.7-10.9,11.3-21.8,11.3s-17.3-3.6-21.8-11.3c-6.4-10.5-7.7-20.2-7.7-74.6
	s1.2-64.1,7.7-74.6c4.4-7.7,10.9-11.3,21.8-11.3s17.3,3.6,21.8,11.3c6.4,10.5,7.7,20.2,7.7,74.6S133.2,206.6,126.8,217.1z"/>
</svg>
