<?xml version="1.0" encoding="utf-8"?>
<!-- Generator: Adobe Illustrator 20.1.0, SVG Export Plug-In . SVG Version: 6.00 Build 0)  -->
<svg version="1.1" id="Layer_1" xmlns="http://www.w3.org/2000/svg" xmlns:xlink="http://www.w3.org/1999/xlink" x="0px" y="0px"
	 viewBox="0 0 235 52.8" style="enable-background:new 0 0 235 52.8;" xml:space="preserve">
<style type="text/css">
	.st0{fill:#FFFFFF;}
</style>
<g>
	<path class="st0" d="M180,22.1l-13.8-9.2l-0.9,6.6l8.8,5.9L180,22.1z"/>
	<g>
		<path class="st0" d="M5.5,12c0.3-1.8,0.6-3.4,0.9-4.8C6.7,5.8,7.3,4.5,8,3.5c0.8-1.1,1.8-2,3-2.5c1.2-0.6,2.6-0.9,4.3-0.9
			C16.3,0,17.2,0,18.2,0c1,0,1.8,0.2,2.6,0.3c0.6,0.1,0.9,0.2,1,0.4c0.1,0.2-0.1,0.7-0.4,1.4c-0.4,0.9-0.7,1.5-0.9,1.8
			c-0.2,0.3-0.6,0.4-1,0.4c-0.7,0-1.4,0-2.2-0.1c-0.7-0.1-1.4-0.1-2,0c-0.7,0.1-1.3,0.2-1.9,0.5c-0.6,0.3-1.1,0.7-1.6,1.3
			c-0.6,0.8-1.1,1.8-1.3,3c-0.2,1.2-0.4,2.4-0.6,3.6l-0.1,0.8h5.9c0.9,0,1.4,0.2,1.5,0.6c0.1,0.4,0.1,1,0,1.7
			c-0.1,0.5-0.1,0.8-0.1,1.1c0,0.3-0.1,0.5-0.3,0.6c-0.1,0.1-0.3,0.2-0.6,0.3c-0.2,0-0.6,0-1.1,0H9.3L4.7,51c-0.1,0.5-0.1,0.8-0.2,1
			c-0.1,0.2-0.2,0.4-0.4,0.5c-0.2,0.1-0.4,0.2-0.7,0.2c-0.3,0-0.7,0-1.1,0c-0.6,0-1,0-1.3,0c-0.3,0-0.6-0.1-0.7-0.2
			C0.1,52.5,0,52.4,0,52.1s0-0.6,0.1-1.1l4.6-33.4L5.5,12z"/>
		<path class="st0" d="M32,13.3c0.4-0.1,0.9-0.1,1.5-0.2c0.6,0,1.1-0.1,1.7-0.1c0.6,0,1.1,0,1.6,0c0.5,0,0.9,0,1.2,0.1
			c0.5,0.1,0.8,0.2,0.9,0.4c0.1,0.2,0,0.6-0.3,1.4c-0.3,0.9-0.6,1.5-0.8,1.8c-0.2,0.3-0.6,0.5-1,0.4c-0.6-0.1-1.3-0.1-2.1-0.1
			c-0.8,0-1.6,0-2.4,0.1c-0.8,0.1-1.6,0.2-2.4,0.4c-0.8,0.1-1.5,0.3-2.1,0.5l-2.8,19.7c-0.1,0.8-0.3,1.2-0.5,1.5
			c-0.2,0.2-0.6,0.3-1.1,0.4h-2c-0.6,0-1-0.1-1.1-0.3s-0.1-0.7,0-1.5l2-13.8l1-6.8h-2.9l0.4-2.5c0.4-0.3,0.8-0.6,1.3-0.8
			c0.4-0.2,0.9-0.4,1.5-0.6c0.6-0.2,1.3-0.3,2-0.3c0.9,0,1.6,0.3,2,0.8c0.4,0.5,0.6,1,0.6,1.5l0.1-0.1C29.3,14.1,30.5,13.5,32,13.3"
			/>
		<path class="st0" d="M42.2,32.7c0.8,1.7,2.5,2.7,5.2,2.9c1.4,0.1,2.7,0,3.7-0.4c1.1-0.3,1.9-0.9,2.7-1.6c0.7-0.7,1.3-1.6,1.8-2.6
			c0.4-1,0.8-2.2,1-3.5c0.2-1.4,0.3-2.7,0.3-3.9c0-1.2-0.2-2.3-0.6-3.2c-0.4-0.9-1-1.7-1.8-2.2c-0.8-0.6-1.9-0.9-3.2-0.9
			c-1.5-0.1-2.7,0.1-3.8,0.5c-1.1,0.4-2,1-2.8,1.8c-0.8,0.8-1.4,1.8-1.8,2.9c-0.4,1.1-0.8,2.3-1,3.7c-0.2,1.3-0.3,2.4-0.3,3.5
			C41.7,30.9,41.9,31.9,42.2,32.7 M46.3,39.8c-1-0.1-1.9-0.2-2.7-0.5c-0.8-0.3-1.6-0.6-2.3-0.9c-1.9-1.1-3.1-2.7-3.8-4.8
			c-0.7-2.1-0.7-4.7-0.1-7.9c0.4-1.9,1-3.7,1.8-5.3c0.8-1.6,1.8-3,3-4.1s2.7-2,4.3-2.6c1.7-0.6,3.6-0.8,5.7-0.7
			c1.9,0.1,3.5,0.6,4.8,1.4c1.3,0.8,2.3,1.9,3,3.2c0.7,1.3,1.1,2.9,1.2,4.6c0.1,1.8,0,3.7-0.3,5.7c-0.3,1.9-0.9,3.7-1.7,5.2
			c-0.8,1.5-1.8,2.8-3,3.9c-1.2,1-2.7,1.8-4.3,2.3C50.3,39.8,48.4,39.9,46.3,39.8"/>
		<path class="st0" d="M63.8,17.1l0.4-2.5c0.4-0.3,0.8-0.6,1.3-0.9c0.4-0.2,0.9-0.4,1.5-0.6c0.6-0.2,1.3-0.3,2-0.3
			c0.9,0,1.6,0.3,1.9,0.7c0.4,0.5,0.6,1,0.6,1.5l0.1-0.1c1-1,2-1.5,3.1-1.7c1.1-0.2,2.5-0.3,4.3-0.4c3.4,0,5.7,0.5,7.1,1.6
			c1.3,1.1,1.9,3,1.5,5.6l-2.4,16.8h2.9l-0.4,2.2c0,0-0.5,0.1-1.4,0.4c-0.9,0.3-2,0.3-3.4,0.2c-0.8-0.1-1.4-0.3-1.7-0.6
			c-0.3-0.3-0.6-0.7-0.7-1.1c-0.1-0.4-0.1-0.9,0-1.5l2.1-15.1c0.1-1.6-0.2-2.7-0.8-3.3c-0.7-0.6-1.8-1-3.3-1.1
			c-1.3-0.1-2.6,0-3.8,0.2c-1.2,0.2-2.4,0.4-3.7,0.7l-2.8,19.7c-0.1,0.8-0.3,1.3-0.5,1.5c-0.2,0.2-0.6,0.3-1.1,0.4h-2
			c-0.6,0-1-0.1-1.1-0.3c-0.1-0.2-0.1-0.7,0-1.5l2-13.8l1-6.8H63.8z"/>
		<path class="st0" d="M95.7,29c-0.1,0.6-0.1,1.2-0.2,1.8c0,0.6,0,1.1,0,1.6c0,0.5,0.2,1,0.4,1.4c0.3,0.6,0.7,1,1.1,1.3
			c0.4,0.3,0.8,0.4,1.3,0.5c0.5,0.1,1,0.1,1.6,0c0.6,0,1.2-0.1,1.9-0.1c0.5-0.1,0.8,0.1,0.9,0.4c0.1,0.3,0.2,0.9,0.4,1.8
			c0.1,0.6,0.1,1.1,0,1.3c-0.1,0.2-0.5,0.4-1.1,0.5c-1,0.2-2.1,0.3-3.2,0.3c-1.1,0-2.1-0.1-3-0.3c-1-0.2-1.8-0.6-2.6-1.1
			c-0.8-0.5-1.3-1.2-1.7-2.1c-0.5-1-0.7-2.3-0.7-3.7c0-1.4,0.2-3,0.5-4.8l2.9-20.4c0.1-0.5,0.1-0.8,0.2-1.1c0.1-0.3,0.2-0.4,0.4-0.5
			c0.2-0.1,0.4-0.2,0.8-0.2c0.3,0,0.8,0,1.3,0c0.9,0,1.5,0.1,1.7,0.2c0.2,0.1,0.2,0.7,0.1,1.6l-0.8,6h6.8c0.5,0,0.8,0,1.1,0
			c0.3,0,0.4,0.1,0.5,0.2c0.1,0.1,0.1,0.3,0.1,0.5c0,0.2-0.1,0.6-0.1,1.1c-0.1,0.8-0.3,1.3-0.5,1.7c-0.2,0.4-0.8,0.6-1.7,0.6h-6.8
			L96,27.2C95.9,27.8,95.8,28.4,95.7,29"/>
		<path class="st0" d="M129.5,4.4c0.1-0.6,0.1-1,0.3-1.3c0.1-0.3,0.2-0.5,0.4-0.7c0.2-0.1,0.5-0.2,0.8-0.3c0.3,0,0.8,0,1.3,0
			c0.6,0,1.1,0,1.5,0c0.4,0,0.7,0.1,0.8,0.2c0.2,0.1,0.3,0.4,0.3,0.7c0,0.3,0,0.8-0.1,1.4l-0.1,1c-0.1,0.6-0.1,1-0.3,1.3
			c-0.1,0.3-0.3,0.5-0.4,0.7c-0.2,0.1-0.5,0.2-0.8,0.3c-0.3,0-0.8,0-1.3,0c-0.7,0-1.2,0-1.6,0c-0.4,0-0.6-0.1-0.8-0.2
			c-0.2-0.1-0.3-0.3-0.3-0.7c0-0.3,0-0.7,0.1-1.4L129.5,4.4z M129.9,37.6c-0.1,0.5-0.1,0.8-0.2,1.1c-0.1,0.2-0.2,0.4-0.4,0.5
			c-0.2,0.1-0.4,0.2-0.7,0.2c-0.3,0-0.7,0-1.2,0c-0.6,0-1,0-1.3,0c-0.3,0-0.6-0.1-0.7-0.2c-0.1-0.1-0.2-0.3-0.2-0.5
			c0-0.3,0-0.6,0.1-1.1l2.9-20.6h-2.9l0.4-2.5c0.4-0.3,0.8-0.6,1.3-0.9c0.4-0.2,0.9-0.4,1.5-0.6c0.6-0.2,1.3-0.3,2-0.3
			c0.9,0,1.6,0.3,2,0.8c0.4,0.5,0.6,1.1,0.6,1.5c0,0.3-0.1,0.7-0.1,0.9L129.9,37.6z"/>
		<path class="st0" d="M135.3,17.1l0.4-2.5c0.4-0.3,0.8-0.6,1.3-0.9c0.4-0.2,0.9-0.4,1.5-0.6c0.6-0.2,1.3-0.3,2-0.3
			c0.9,0,1.6,0.3,1.9,0.7c0.4,0.5,0.6,1,0.6,1.5l0.1-0.1c1-1,2-1.5,3.1-1.7c1.1-0.2,2.5-0.3,4.3-0.4c3.4,0,5.7,0.5,7.1,1.6
			c1.3,1.1,1.9,3,1.5,5.6l-2.4,16.8h2.9l-0.4,2.2c0,0-0.5,0.1-1.4,0.4c-0.9,0.3-2,0.3-3.4,0.2c-0.8-0.1-1.4-0.3-1.7-0.6
			c-0.3-0.3-0.6-0.7-0.7-1.1c-0.1-0.4-0.1-0.9,0-1.5l2.1-15.1c0.1-1.6-0.2-2.7-0.8-3.3c-0.7-0.6-1.8-1-3.3-1.1
			c-1.3-0.1-2.6,0-3.8,0.2c-1.2,0.2-2.4,0.4-3.7,0.7l-2.8,19.7c-0.1,0.8-0.3,1.3-0.5,1.5c-0.2,0.2-0.6,0.3-1.1,0.4h-2
			c-0.6,0-1-0.1-1.1-0.3s-0.1-0.7,0-1.5l2-13.8l1-6.8H135.3z"/>
		<path class="st0" d="M194.1,17.7c-0.8,0.3-1.6,0.7-2.5,1.2l-2.3,16.5c0.6,0.1,1.3,0.3,2,0.3c0.8,0.1,1.8,0.2,3,0.2
			c0.8,0,1.5-0.1,2.1-0.2c0.6-0.1,1.1-0.3,1.5-0.5c0.9-0.4,1.7-1.1,2.4-2c0.7-0.9,1.4-2,1.8-3.2s0.8-2.9,1.1-5.1
			c0.3-2.2,0.1-4.1-0.7-5.7c-0.5-1.2-1.7-2-3.4-2.3c-0.4-0.1-1.1-0.1-2,0C196.4,17,195.3,17.2,194.1,17.7 M193.7,39.8
			c-3.8,0-6.9-0.5-9.3-1.7l5-36.1c0.1-0.4,0.1-0.8,0.2-1c0.1-0.3,0.2-0.4,0.4-0.6c0.2-0.1,0.4-0.2,0.7-0.2c0.3,0,0.7,0,1.2,0
			c0.6,0,1,0,1.4,0c0.3,0,0.6,0.1,0.7,0.2c0.1,0.1,0.2,0.3,0.2,0.5s0,0.6-0.1,1.1l-1.8,13c0.9-0.5,1.7-0.8,2.4-1.1
			c1.4-0.6,3-0.9,4.8-0.9c0.5,0,1.1,0.1,1.9,0.1c0.8,0.1,1.5,0.3,2.3,0.7c1.2,0.6,2.2,1.5,2.9,2.7c0.7,1.2,1.2,2.6,1.4,4.2
			c0.3,1.6,0.2,3.4-0.1,5.4c-0.3,1.9-0.8,3.7-1.6,5.4s-1.7,3.1-2.8,4.3c-1.1,1.2-2.1,2-3.2,2.5c-1.1,0.5-2,0.8-2.7,1
			C196.3,39.6,195,39.8,193.7,39.8"/>
		<path class="st0" d="M210.5,39c-0.1-0.2-0.1-0.7,0-1.5l5-35.5c0.1-0.4,0.1-0.8,0.2-1c0.1-0.2,0.2-0.4,0.4-0.6
			c0.2-0.1,0.4-0.2,0.7-0.2c0.3,0,0.7,0,1.2,0c0.6,0,1,0,1.4,0c0.3,0,0.6,0.1,0.7,0.2c0.2,0.1,0.2,0.3,0.2,0.5s0,0.6-0.1,1.1
			l-1.8,12.9h0.1c1-1,2-1.5,3.1-1.7c1.1-0.2,2.6-0.3,4.5-0.4c3.4,0,5.7,0.5,7.1,1.6c1.3,1.1,1.9,3,1.6,5.6l-2.4,16.8h2.9l-0.4,2.2
			c0,0-0.5,0.1-1.4,0.4s-2,0.3-3.4,0.2c-0.8-0.1-1.4-0.3-1.7-0.6c-0.3-0.3-0.6-0.7-0.7-1.1c-0.1-0.4-0.1-0.9,0-1.5l2.1-15.1
			c0.1-1.6-0.2-2.7-0.8-3.3c-0.7-0.6-1.8-1-3.3-1.1c-1.3-0.1-2.6,0-3.9,0.2c-1.2,0.2-2.5,0.4-3.8,0.7l-2.8,19.7
			c-0.1,0.8-0.3,1.3-0.5,1.5c-0.2,0.2-0.6,0.3-1.1,0.4h-2C211,39.3,210.6,39.2,210.5,39"/>
	</g>
	<polygon class="st0" points="180.1,29.5 181.1,22.9 163.4,32.8 162.5,39.4 	"/>
	<path class="st0" d="M105.3,30.2l13.8,9.2l0.9-6.6l-8.8-5.9L105.3,30.2z"/>
	<polygon class="st0" points="105.1,22.8 104.1,29.5 121.8,19.5 122.8,12.9 	"/>
</g>
</svg>
